# xmcd
#
# Track frame offsets:
#	150
#	22000
#	38480
#	53861
#	69266
#	86183
#	100613
#	118045
#	133643
#	149257
#	166197
#
# Disc length: 2425 seconds
#
# Revision: 1
# Processed by: cddbd v1.5.1PL0 Copyright (c) Steve Scherf et al.
# Submitted via: audiograbber 1.82.02
#
DISCID=8d09770b
DTITLE=Matos Nascimento and Amigos - Amigos da Line Records
DYEAR=1999
DGENRE=Gospel
TTITLE0=Sinceramente
TTITLE1=Nome Sem Igual
TTITLE2=Pare de Sofrer
TTITLE3=Em Cristo Achei Liberdade
TTITLE4=Oh Gloria
TTITLE5=Eu Venci
TTITLE6=Jesus é o Rei
TTITLE7=Anjos Poderosos
TTITLE8=Alegria Todo Dia
TTITLE9=Algemas Cairam
TTITLE10=Dia de Pentecostes
EXTD=
EXTT0=
EXTT1=
EXTT2=
EXTT3=
EXTT4=
EXTT5=
EXTT6=
EXTT7=
EXTT8=
EXTT9=
EXTT10=
PLAYORDER=
